<svg xmlns="http://www.w3.org/2000/svg" width="270" height="56" viewBox="0 0 270 56" fill="none">
<path d="M16.1021 29H12.4399V21.3828H5.29883V29H1.63672V11.2266H5.29883V18.4287H12.4399V11.2266H16.1021V29ZM38.9121 20.5161C38.9121 22.2658 38.6029 23.7998 37.9844 25.1182C37.3659 26.4365 36.4788 27.4538 35.3232 28.1699C34.1758 28.8861 32.8574 29.2441 31.3682 29.2441C29.8952 29.2441 28.5809 28.8901 27.4253 28.1821C26.2697 27.4741 25.3745 26.465 24.7397 25.1548C24.105 23.8364 23.7835 22.3228 23.7754 20.6138V19.7349C23.7754 17.9852 24.0887 16.4471 24.7153 15.1206C25.3501 13.786 26.2412 12.7646 27.3887 12.0566C28.5443 11.3405 29.8626 10.9824 31.3438 10.9824C32.8249 10.9824 34.1392 11.3405 35.2866 12.0566C36.4422 12.7646 37.3333 13.786 37.96 15.1206C38.5947 16.4471 38.9121 17.9811 38.9121 19.7227V20.5161ZM35.2012 19.7104C35.2012 17.8468 34.8675 16.4308 34.2002 15.4624C33.5329 14.494 32.5807 14.0098 31.3438 14.0098C30.1149 14.0098 29.1668 14.4899 28.4995 15.4502C27.8322 16.4023 27.4945 17.8021 27.4863 19.6494V20.5161C27.4863 22.3309 27.82 23.7388 28.4873 24.7397C29.1546 25.7407 30.1149 26.2412 31.3682 26.2412C32.597 26.2412 33.541 25.7611 34.2002 24.8008C34.8594 23.8324 35.193 22.4245 35.2012 20.5771V19.7104ZM46.5732 29V11.2266H52.042C53.6045 11.2266 55.0002 11.5806 56.229 12.2886C57.466 12.9884 58.4303 13.9894 59.1221 15.2915C59.8138 16.5854 60.1597 18.0584 60.1597 19.7104V20.5283C60.1597 22.1803 59.8179 23.6493 59.1343 24.9351C58.4588 26.2209 57.5026 27.2178 56.2656 27.9258C55.0286 28.6338 53.633 28.9919 52.0786 29H46.5732ZM50.2354 14.1929V26.0581H52.0054C53.4377 26.0581 54.5322 25.5902 55.2891 24.6543C56.0459 23.7184 56.4325 22.3797 56.4487 20.6382V19.6982C56.4487 17.8916 56.0744 16.5244 55.3257 15.5967C54.577 14.6608 53.4824 14.1929 52.042 14.1929H50.2354ZM77.5986 25.3379H71.1777L69.957 29H66.063L72.6792 11.2266H76.0728L82.7256 29H78.8315L77.5986 25.3379ZM72.1665 22.3716H76.6099L74.376 15.7188L72.1665 22.3716ZM103.07 23.0796C102.931 24.992 102.223 26.4976 100.946 27.5962C99.6763 28.6948 97.9998 29.2441 95.9165 29.2441C93.6379 29.2441 91.8434 28.4792 90.5332 26.9492C89.2311 25.4111 88.5801 23.3034 88.5801 20.626V19.5396C88.5801 17.8306 88.8812 16.325 89.4834 15.0229C90.0856 13.7209 90.9442 12.724 92.0591 12.0322C93.1821 11.3324 94.4842 10.9824 95.9653 10.9824C98.0161 10.9824 99.6681 11.5317 100.921 12.6304C102.175 13.729 102.899 15.2712 103.094 17.2568H99.4321C99.3426 16.1094 99.0212 15.2793 98.4678 14.7666C97.9225 14.2458 97.0884 13.9854 95.9653 13.9854C94.7446 13.9854 93.8291 14.4248 93.2188 15.3037C92.6165 16.1745 92.3073 17.5295 92.291 19.3687V20.7114C92.291 22.632 92.5799 24.0358 93.1577 24.9229C93.7437 25.8099 94.6632 26.2534 95.9165 26.2534C97.0477 26.2534 97.89 25.9971 98.4434 25.4844C99.0049 24.9635 99.3263 24.1619 99.4077 23.0796H103.07ZM121.168 21.2974H114.137V26.0581H122.389V29H110.475V11.2266H122.364V14.1929H114.137V18.4287H121.168V21.2974Z" fill="black"/>
<rect x="137" y="5" width="133" height="29" fill="#1086C9"/>
<path d="M159.148 26H157.048L151.661 17.4253V26H149.561V13.9141H151.661L157.065 22.522V13.9141H159.148V26ZM173.694 20.6045H168.73V24.3232H174.533V26H166.63V13.9141H174.475V15.6074H168.73V18.9443H173.694V20.6045ZM190.141 15.6074H186.373V26H184.289V15.6074H180.554V13.9141H190.141V15.6074ZM206.347 23.0117L208.207 13.9141H210.29L207.501 26H205.492L203.193 17.1763L200.844 26H198.827L196.038 13.9141H198.121L199.997 22.9951L202.305 13.9141H204.064L206.347 23.0117ZM226.471 20.2725C226.471 21.4567 226.266 22.4971 225.857 23.3936C225.447 24.2845 224.861 24.9707 224.097 25.4521C223.339 25.9281 222.465 26.166 221.474 26.166C220.495 26.166 219.62 25.9281 218.851 25.4521C218.087 24.9707 217.495 24.2873 217.075 23.4019C216.66 22.5164 216.449 21.4954 216.444 20.3389V19.6582C216.444 18.4795 216.651 17.4391 217.066 16.5371C217.487 15.6351 218.076 14.9461 218.834 14.4702C219.598 13.9888 220.472 13.748 221.458 13.748C222.443 13.748 223.314 13.986 224.072 14.4619C224.836 14.9323 225.425 15.613 225.84 16.5039C226.255 17.3893 226.466 18.4214 226.471 19.6001V20.2725ZM224.371 19.6416C224.371 18.3024 224.117 17.2759 223.607 16.562C223.104 15.8481 222.387 15.4912 221.458 15.4912C220.55 15.4912 219.839 15.8481 219.324 16.562C218.815 17.2703 218.555 18.2747 218.544 19.5752V20.2725C218.544 21.6006 218.801 22.6271 219.316 23.3521C219.836 24.077 220.556 24.4395 221.474 24.4395C222.404 24.4395 223.118 24.0853 223.616 23.377C224.119 22.6686 224.371 21.6338 224.371 20.2725V19.6416ZM238.004 21.3433H235.663V26H233.563V13.9141H237.813C239.208 13.9141 240.284 14.2267 241.042 14.8521C241.8 15.4774 242.179 16.3822 242.179 17.5664C242.179 18.3743 241.983 19.0522 241.59 19.6001C241.202 20.1424 240.66 20.5602 239.963 20.8535L242.677 25.8921V26H240.428L238.004 21.3433ZM235.663 19.6582H237.821C238.53 19.6582 239.083 19.4811 239.481 19.127C239.88 18.7673 240.079 18.2775 240.079 17.6577C240.079 17.0103 239.894 16.5094 239.523 16.1553C239.158 15.8011 238.61 15.6185 237.879 15.6074H235.663V19.6582ZM252.641 20.7788L251.271 22.2314V26H249.171V13.9141H251.271V19.5835L252.434 18.1475L255.97 13.9141H258.51L254.019 19.2681L258.767 26H256.277L252.641 20.7788Z" fill="white"/>
<path d="M73.2607 48.7876C72.9476 49.2362 72.5096 49.5726 71.9468 49.7969C71.3882 50.0169 70.7365 50.127 69.9917 50.127C69.2384 50.127 68.5698 49.9513 67.9858 49.6001C67.4019 49.2446 66.9491 48.741 66.6274 48.0894C66.3101 47.4377 66.1471 46.6823 66.1387 45.8232V45.0171C66.1387 43.6248 66.4624 42.5457 67.1099 41.7798C67.7616 41.0138 68.6756 40.6309 69.8521 40.6309C70.8169 40.6309 71.5934 40.8784 72.1816 41.3735C72.7699 41.8644 73.1296 42.5627 73.2607 43.4683H72.042C71.8135 42.2453 71.0856 41.6338 69.8584 41.6338C69.0417 41.6338 68.4217 41.9215 67.9985 42.4971C67.5796 43.0684 67.368 43.8978 67.3638 44.9854V45.7407C67.3638 46.7775 67.6007 47.6027 68.0747 48.2163C68.5487 48.8257 69.1898 49.1304 69.998 49.1304C70.4551 49.1304 70.855 49.0796 71.1978 48.978C71.5405 48.8765 71.8241 48.7051 72.0483 48.4639V46.3882H69.9092V45.3979H73.2607V48.7876ZM76.3901 50H75.2158V43.1318H76.3901V50ZM75.1206 41.3101C75.1206 41.1196 75.1777 40.9588 75.292 40.8276C75.4105 40.6965 75.584 40.6309 75.8125 40.6309C76.041 40.6309 76.2145 40.6965 76.333 40.8276C76.4515 40.9588 76.5107 41.1196 76.5107 41.3101C76.5107 41.5005 76.4515 41.6592 76.333 41.7861C76.2145 41.9131 76.041 41.9766 75.8125 41.9766C75.584 41.9766 75.4105 41.9131 75.292 41.7861C75.1777 41.6592 75.1206 41.5005 75.1206 41.3101ZM82.5156 50C82.4479 49.8646 82.3929 49.6234 82.3506 49.2764C81.8047 49.8434 81.153 50.127 80.3955 50.127C79.7184 50.127 79.1619 49.9365 78.7261 49.5557C78.2944 49.1706 78.0786 48.6839 78.0786 48.0957C78.0786 47.3805 78.3494 46.8262 78.8911 46.4326C79.437 46.0348 80.203 45.8359 81.189 45.8359H82.3315V45.2964C82.3315 44.8859 82.2088 44.5601 81.9634 44.3188C81.7179 44.0734 81.3561 43.9507 80.8779 43.9507C80.459 43.9507 80.1077 44.0565 79.8242 44.2681C79.5407 44.4797 79.3989 44.7357 79.3989 45.0361H78.2183C78.2183 44.6934 78.3389 44.3633 78.5801 44.0459C78.8255 43.7243 79.1556 43.4704 79.5703 43.2842C79.9893 43.098 80.4484 43.0049 80.9478 43.0049C81.7391 43.0049 82.359 43.2038 82.8076 43.6016C83.2562 43.9951 83.4889 44.5389 83.5059 45.2329V48.394C83.5059 49.0246 83.5863 49.526 83.7471 49.8984V50H82.5156ZM80.5669 49.105C80.9351 49.105 81.2842 49.0098 81.6143 48.8193C81.9443 48.6289 82.1834 48.3813 82.3315 48.0767V46.6675H81.4111C79.9723 46.6675 79.2529 47.0885 79.2529 47.9307C79.2529 48.2988 79.3757 48.5866 79.6211 48.7939C79.8665 49.0013 80.1818 49.105 80.5669 49.105ZM80.6812 42.021L80.6748 41.0498C80.9922 41.0286 81.2249 40.9863 81.373 40.9229C81.5212 40.8594 81.5952 40.7451 81.5952 40.5801C81.5952 40.415 81.4979 40.2923 81.3032 40.2119C81.1128 40.1273 80.8589 40.085 80.5415 40.085L80.5859 39.4121C81.2165 39.4121 81.6947 39.5221 82.0205 39.7422C82.3464 39.958 82.5093 40.2458 82.5093 40.6055C82.5093 40.8636 82.4268 41.0773 82.2617 41.2466C82.0967 41.4159 81.8512 41.5238 81.5254 41.5703L81.519 42.021H80.6812ZM86.6226 50H85.4482V43.1318H86.6226V50ZM85.353 41.3101C85.353 41.1196 85.4102 40.9588 85.5244 40.8276C85.6429 40.6965 85.8164 40.6309 86.0449 40.6309C86.2734 40.6309 86.4469 40.6965 86.5654 40.8276C86.6839 40.9588 86.7432 41.1196 86.7432 41.3101C86.7432 41.5005 86.6839 41.6592 86.5654 41.7861C86.4469 41.9131 86.2734 41.9766 86.0449 41.9766C85.8164 41.9766 85.6429 41.9131 85.5244 41.7861C85.4102 41.6592 85.353 41.5005 85.353 41.3101ZM97.5342 46.6421C97.5342 47.6873 97.2951 48.5295 96.8169 49.1685C96.3387 49.8075 95.6912 50.127 94.8745 50.127C94.0409 50.127 93.3849 49.8625 92.9067 49.3335V52.6406H91.7324V43.1318H92.8052L92.8623 43.8936C93.3405 43.3011 94.0049 43.0049 94.8555 43.0049C95.6807 43.0049 96.3324 43.3159 96.8105 43.938C97.293 44.5601 97.5342 45.4255 97.5342 46.5342V46.6421ZM96.3599 46.5088C96.3599 45.7344 96.1948 45.1229 95.8647 44.6743C95.5347 44.2257 95.0819 44.0015 94.5063 44.0015C93.7954 44.0015 93.2622 44.3167 92.9067 44.9473V48.229C93.258 48.8553 93.7954 49.1685 94.519 49.1685C95.0819 49.1685 95.5283 48.9463 95.8584 48.502C96.1927 48.0534 96.3599 47.389 96.3599 46.5088ZM100.207 43.9634C100.727 43.3244 101.404 43.0049 102.238 43.0049C103.689 43.0049 104.421 43.8237 104.434 45.4614V50H103.26V45.4551C103.256 44.96 103.141 44.5939 102.917 44.3569C102.697 44.12 102.352 44.0015 101.882 44.0015C101.501 44.0015 101.167 44.103 100.879 44.3062C100.592 44.5093 100.367 44.7759 100.207 45.106V50H99.0322V40.25H100.207V43.9634ZM110.433 50C110.365 49.8646 110.31 49.6234 110.268 49.2764C109.722 49.8434 109.07 50.127 108.312 50.127C107.635 50.127 107.079 49.9365 106.643 49.5557C106.211 49.1706 105.996 48.6839 105.996 48.0957C105.996 47.3805 106.266 46.8262 106.808 46.4326C107.354 46.0348 108.12 45.8359 109.106 45.8359H110.249V45.2964C110.249 44.8859 110.126 44.5601 109.88 44.3188C109.635 44.0734 109.273 43.9507 108.795 43.9507C108.376 43.9507 108.025 44.0565 107.741 44.2681C107.458 44.4797 107.316 44.7357 107.316 45.0361H106.135C106.135 44.6934 106.256 44.3633 106.497 44.0459C106.743 43.7243 107.073 43.4704 107.487 43.2842C107.906 43.098 108.365 43.0049 108.865 43.0049C109.656 43.0049 110.276 43.2038 110.725 43.6016C111.173 43.9951 111.406 44.5389 111.423 45.2329V48.394C111.423 49.0246 111.503 49.526 111.664 49.8984V50H110.433ZM108.484 49.105C108.852 49.105 109.201 49.0098 109.531 48.8193C109.861 48.6289 110.1 48.3813 110.249 48.0767V46.6675H109.328C107.889 46.6675 107.17 47.0885 107.17 47.9307C107.17 48.2988 107.293 48.5866 107.538 48.7939C107.784 49.0013 108.099 49.105 108.484 49.105ZM109.569 40.25H110.991L109.29 42.1162H108.344L109.569 40.25ZM119.065 46.6421C119.065 47.6873 118.826 48.5295 118.348 49.1685C117.87 49.8075 117.222 50.127 116.406 50.127C115.572 50.127 114.916 49.8625 114.438 49.3335V52.6406H113.264V43.1318H114.336L114.394 43.8936C114.872 43.3011 115.536 43.0049 116.387 43.0049C117.212 43.0049 117.864 43.3159 118.342 43.938C118.824 44.5601 119.065 45.4255 119.065 46.5342V46.6421ZM117.891 46.5088C117.891 45.7344 117.726 45.1229 117.396 44.6743C117.066 44.2257 116.613 44.0015 116.038 44.0015C115.327 44.0015 114.793 44.3167 114.438 44.9473V48.229C114.789 48.8553 115.327 49.1685 116.05 49.1685C116.613 49.1685 117.06 48.9463 117.39 48.502C117.724 48.0534 117.891 47.389 117.891 46.5088ZM125.381 41.4688V43.1318H126.664V44.0396H125.381V48.2988C125.381 48.5739 125.438 48.7812 125.553 48.9209C125.667 49.0563 125.862 49.124 126.137 49.124C126.272 49.124 126.458 49.0986 126.695 49.0479V50C126.386 50.0846 126.086 50.127 125.794 50.127C125.269 50.127 124.874 49.9683 124.607 49.6509C124.34 49.3335 124.207 48.8828 124.207 48.2988V44.0396H122.957V43.1318H124.207V41.4688H125.381ZM127.603 46.5024C127.603 45.8296 127.734 45.2244 127.997 44.687C128.263 44.1496 128.631 43.7349 129.101 43.4429C129.575 43.1509 130.115 43.0049 130.72 43.0049C131.655 43.0049 132.41 43.3286 132.986 43.9761C133.566 44.6235 133.855 45.4847 133.855 46.5596V46.6421C133.855 47.3107 133.726 47.9116 133.468 48.4448C133.214 48.9738 132.848 49.3864 132.37 49.6826C131.896 49.9788 131.35 50.127 130.732 50.127C129.801 50.127 129.046 49.8032 128.466 49.1558C127.891 48.5083 127.603 47.6514 127.603 46.585V46.5024ZM128.784 46.6421C128.784 47.4038 128.959 48.0153 129.311 48.4766C129.666 48.9378 130.14 49.1685 130.732 49.1685C131.329 49.1685 131.803 48.9357 132.154 48.4702C132.506 48.0005 132.681 47.3446 132.681 46.5024C132.681 45.7492 132.501 45.1398 132.142 44.6743C131.786 44.2046 131.312 43.9697 130.72 43.9697C130.14 43.9697 129.672 44.2004 129.317 44.6616C128.961 45.1229 128.784 45.783 128.784 46.6421ZM139.568 50C139.501 49.8646 139.446 49.6234 139.403 49.2764C138.857 49.8434 138.206 50.127 137.448 50.127C136.771 50.127 136.215 49.9365 135.779 49.5557C135.347 49.1706 135.131 48.6839 135.131 48.0957C135.131 47.3805 135.402 46.8262 135.944 46.4326C136.49 46.0348 137.256 45.8359 138.242 45.8359H139.384V45.2964C139.384 44.8859 139.262 44.5601 139.016 44.3188C138.771 44.0734 138.409 43.9507 137.931 43.9507C137.512 43.9507 137.16 44.0565 136.877 44.2681C136.593 44.4797 136.452 44.7357 136.452 45.0361H135.271C135.271 44.6934 135.392 44.3633 135.633 44.0459C135.878 43.7243 136.208 43.4704 136.623 43.2842C137.042 43.098 137.501 43.0049 138 43.0049C138.792 43.0049 139.412 43.2038 139.86 43.6016C140.309 43.9951 140.542 44.5389 140.559 45.2329V48.394C140.559 49.0246 140.639 49.526 140.8 49.8984V50H139.568ZM137.62 49.105C137.988 49.105 138.337 49.0098 138.667 48.8193C138.997 48.6289 139.236 48.3813 139.384 48.0767V46.6675H138.464C137.025 46.6675 136.306 47.0885 136.306 47.9307C136.306 48.2988 136.428 48.5866 136.674 48.7939C136.919 49.0013 137.235 49.105 137.62 49.105ZM138.8 42.1162H137.791L136.153 40.25H137.569L138.8 42.1162ZM143.51 43.1318L143.548 43.9951C144.073 43.335 144.759 43.0049 145.605 43.0049C147.056 43.0049 147.789 43.8237 147.801 45.4614V50H146.627V45.4551C146.623 44.96 146.508 44.5939 146.284 44.3569C146.064 44.12 145.719 44.0015 145.25 44.0015C144.869 44.0015 144.534 44.103 144.247 44.3062C143.959 44.5093 143.735 44.7759 143.574 45.106V50H142.399V43.1318H143.51ZM155.063 48.4067L156.764 43.1318H157.964L155.501 50H154.606L152.118 43.1318H153.317L155.063 48.4067ZM161.855 50.127C160.924 50.127 160.167 49.8223 159.583 49.2129C158.999 48.5993 158.707 47.7804 158.707 46.7563V46.5405C158.707 45.8592 158.836 45.252 159.094 44.7188C159.356 44.1813 159.72 43.7624 160.186 43.4619C160.655 43.1572 161.163 43.0049 161.709 43.0049C162.602 43.0049 163.296 43.299 163.791 43.8872C164.286 44.4754 164.534 45.3175 164.534 46.4136V46.9023H159.881C159.898 47.5794 160.095 48.1274 160.471 48.5464C160.852 48.9611 161.334 49.1685 161.918 49.1685C162.333 49.1685 162.684 49.0838 162.972 48.9146C163.26 48.7453 163.512 48.521 163.728 48.2417L164.445 48.8003C163.869 49.6847 163.006 50.127 161.855 50.127ZM161.709 43.9697C161.235 43.9697 160.837 44.1432 160.516 44.4902C160.194 44.833 159.995 45.3154 159.919 45.9375H163.359V45.8486C163.326 45.252 163.165 44.7907 162.877 44.4648C162.589 44.1348 162.2 43.9697 161.709 43.9697ZM160.985 51.5552C160.985 51.3647 161.042 51.2039 161.157 51.0728C161.275 50.9416 161.449 50.876 161.677 50.876C161.906 50.876 162.079 50.9416 162.198 51.0728C162.316 51.2039 162.375 51.3647 162.375 51.5552C162.375 51.7456 162.316 51.9043 162.198 52.0312C162.079 52.1582 161.906 52.2217 161.677 52.2217C161.449 52.2217 161.275 52.1582 161.157 52.0312C161.042 51.9043 160.985 51.7456 160.985 51.5552ZM167.009 43.1318L167.047 43.9951C167.572 43.335 168.258 43.0049 169.104 43.0049C170.556 43.0049 171.288 43.8237 171.3 45.4614V50H170.126V45.4551C170.122 44.96 170.007 44.5939 169.783 44.3569C169.563 44.12 169.218 44.0015 168.749 44.0015C168.368 44.0015 168.033 44.103 167.746 44.3062C167.458 44.5093 167.234 44.7759 167.073 45.106V50H165.898V43.1318H167.009ZM179.051 49.1685C179.47 49.1685 179.836 49.0415 180.149 48.7876C180.462 48.5337 180.636 48.2163 180.669 47.8354H181.78C181.759 48.229 181.624 48.6035 181.374 48.959C181.124 49.3145 180.79 49.598 180.371 49.8096C179.956 50.0212 179.516 50.127 179.051 50.127C178.116 50.127 177.371 49.8159 176.816 49.1938C176.266 48.5675 175.991 47.7127 175.991 46.6294V46.4326C175.991 45.764 176.114 45.1694 176.359 44.6489C176.605 44.1284 176.956 43.7243 177.413 43.4365C177.874 43.1488 178.418 43.0049 179.044 43.0049C179.815 43.0049 180.454 43.2355 180.961 43.6968C181.473 44.158 181.746 44.7568 181.78 45.4932H180.669C180.636 45.0488 180.466 44.6849 180.162 44.4014C179.861 44.1136 179.489 43.9697 179.044 43.9697C178.448 43.9697 177.984 44.1855 177.654 44.6172C177.328 45.0446 177.166 45.6646 177.166 46.4771V46.6992C177.166 47.4906 177.328 48.0999 177.654 48.5273C177.98 48.9548 178.446 49.1685 179.051 49.1685ZM184.275 43.9634C184.795 43.3244 185.472 43.0049 186.306 43.0049C187.758 43.0049 188.49 43.8237 188.502 45.4614V50H187.328V45.4551C187.324 44.96 187.21 44.5939 186.985 44.3569C186.765 44.12 186.42 44.0015 185.951 44.0015C185.57 44.0015 185.236 44.103 184.948 44.3062C184.66 44.5093 184.436 44.7759 184.275 45.106V50H183.101V40.25H184.275V43.9634ZM189.95 46.5024C189.95 45.8296 190.081 45.2244 190.343 44.687C190.61 44.1496 190.978 43.7349 191.448 43.4429C191.922 43.1509 192.461 43.0049 193.066 43.0049C194.002 43.0049 194.757 43.3286 195.333 43.9761C195.912 44.6235 196.202 45.4847 196.202 46.5596V46.6421C196.202 47.3107 196.073 47.9116 195.815 48.4448C195.561 48.9738 195.195 49.3864 194.717 49.6826C194.243 49.9788 193.697 50.127 193.079 50.127C192.148 50.127 191.393 49.8032 190.813 49.1558C190.237 48.5083 189.95 47.6514 189.95 46.585V46.5024ZM191.13 46.6421C191.13 47.4038 191.306 48.0153 191.657 48.4766C192.013 48.9378 192.487 49.1685 193.079 49.1685C193.676 49.1685 194.15 48.9357 194.501 48.4702C194.852 48.0005 195.028 47.3446 195.028 46.5024C195.028 45.7492 194.848 45.1398 194.488 44.6743C194.133 44.2046 193.659 43.9697 193.066 43.9697C192.487 43.9697 192.019 44.2004 191.664 44.6616C191.308 45.1229 191.13 45.783 191.13 46.6421ZM200.614 46.5088C200.614 45.4551 200.863 44.6087 201.363 43.9697C201.862 43.3265 202.516 43.0049 203.324 43.0049C204.128 43.0049 204.765 43.2799 205.235 43.8301V40.25H206.409V50H205.33L205.273 49.2637C204.803 49.8392 204.149 50.127 203.312 50.127C202.516 50.127 201.866 49.8011 201.363 49.1494C200.863 48.4977 200.614 47.6471 200.614 46.5977V46.5088ZM201.788 46.6421C201.788 47.4207 201.949 48.0301 202.271 48.4702C202.592 48.9103 203.036 49.1304 203.604 49.1304C204.348 49.1304 204.892 48.7961 205.235 48.1274V44.9727C204.884 44.3252 204.344 44.0015 203.616 44.0015C203.041 44.0015 202.592 44.2236 202.271 44.668C201.949 45.1123 201.788 45.7703 201.788 46.6421ZM215.569 42.5859C215.569 43.3477 215.412 43.8851 215.099 44.1982C214.79 44.5072 214.297 44.6701 213.62 44.687V50H212.503L212.478 49.3208C212.021 49.8582 211.35 50.127 210.465 50.127C209.733 50.127 209.175 49.9154 208.79 49.4922C208.409 49.0648 208.216 48.4342 208.212 47.6006V43.1318H209.386V47.5688C209.386 48.6099 209.809 49.1304 210.656 49.1304C211.553 49.1304 212.15 48.7961 212.446 48.1274V43.1318H213.62V43.9634C213.908 43.9549 214.124 43.9147 214.268 43.8428C214.411 43.7666 214.513 43.6523 214.572 43.5C214.636 43.3477 214.667 43.043 214.667 42.5859H215.569ZM213.284 40.5801C213.284 41.0371 213.153 41.4074 212.89 41.6909C212.632 41.9744 212.308 42.1162 211.919 42.1162C211.745 42.1162 211.595 42.0951 211.468 42.0527C211.341 42.0104 211.174 41.9237 210.967 41.7925C210.764 41.6613 210.616 41.583 210.522 41.5576C210.434 41.528 210.33 41.5132 210.211 41.5132C210.038 41.5132 209.89 41.5809 209.767 41.7163C209.644 41.8475 209.583 42.0168 209.583 42.2241L208.796 42.1797C208.796 41.7269 208.923 41.3524 209.177 41.0562C209.435 40.7599 209.761 40.6118 210.154 40.6118C210.302 40.6118 210.436 40.633 210.554 40.6753C210.673 40.7176 210.833 40.8001 211.037 40.9229C211.24 41.0456 211.394 41.126 211.5 41.1641C211.61 41.2021 211.731 41.2212 211.862 41.2212C212.044 41.2212 212.194 41.1493 212.312 41.0054C212.435 40.8615 212.497 40.6943 212.497 40.5039L213.284 40.5801ZM220.787 50H219.612V40.25H220.787V50ZM223.948 50H222.773V43.1318H223.948V50ZM222.678 41.3101C222.678 41.1196 222.735 40.9588 222.85 40.8276C222.968 40.6965 223.142 40.6309 223.37 40.6309C223.599 40.6309 223.772 40.6965 223.891 40.8276C224.009 40.9588 224.068 41.1196 224.068 41.3101C224.068 41.5005 224.009 41.6592 223.891 41.7861C223.772 41.9131 223.599 41.9766 223.37 41.9766C223.142 41.9766 222.968 41.9131 222.85 41.7861C222.735 41.6592 222.678 41.5005 222.678 41.3101ZM228.683 50.127C227.752 50.127 226.995 49.8223 226.411 49.2129C225.827 48.5993 225.535 47.7804 225.535 46.7563V46.5405C225.535 45.8592 225.664 45.252 225.922 44.7188C226.184 44.1813 226.548 43.7624 227.014 43.4619C227.483 43.1572 227.991 43.0049 228.537 43.0049C229.43 43.0049 230.124 43.299 230.619 43.8872C231.114 44.4754 231.362 45.3175 231.362 46.4136V46.9023H226.709C226.726 47.5794 226.923 48.1274 227.299 48.5464C227.68 48.9611 228.163 49.1685 228.747 49.1685C229.161 49.1685 229.513 49.0838 229.8 48.9146C230.088 48.7453 230.34 48.521 230.556 48.2417L231.273 48.8003C230.697 49.6847 229.834 50.127 228.683 50.127ZM228.537 43.9697C228.063 43.9697 227.665 44.1432 227.344 44.4902C227.022 44.833 226.823 45.3154 226.747 45.9375H230.188V45.8486C230.154 45.252 229.993 44.7907 229.705 44.4648C229.417 44.1348 229.028 43.9697 228.537 43.9697ZM230.454 41.9893V42.0527H229.483L228.531 40.9736L227.585 42.0527H226.614V41.9766L228.175 40.25H228.886L230.454 41.9893ZM227.813 51.5552C227.813 51.3647 227.871 51.2039 227.985 51.0728C228.103 50.9416 228.277 50.876 228.505 50.876C228.734 50.876 228.907 50.9416 229.026 51.0728C229.144 51.2039 229.204 51.3647 229.204 51.5552C229.204 51.7456 229.144 51.9043 229.026 52.0312C228.907 52.1582 228.734 52.2217 228.505 52.2217C228.277 52.2217 228.103 52.1582 227.985 52.0312C227.871 51.9043 227.813 51.7456 227.813 51.5552ZM236.967 49.3208C236.51 49.8582 235.839 50.127 234.955 50.127C234.222 50.127 233.664 49.9154 233.279 49.4922C232.898 49.0648 232.705 48.4342 232.701 47.6006V43.1318H233.875V47.5688C233.875 48.6099 234.299 49.1304 235.145 49.1304C236.042 49.1304 236.639 48.7961 236.935 48.1274V43.1318H238.109V50H236.992L236.967 49.3208ZM243.308 50V40.7578H246.33C247.333 40.7578 248.086 40.9652 248.589 41.3799C249.097 41.7946 249.351 42.4082 249.351 43.2207C249.351 43.6523 249.228 44.0353 248.983 44.3696C248.737 44.6997 248.403 44.9557 247.98 45.1377C248.479 45.2773 248.873 45.5439 249.161 45.9375C249.453 46.3268 249.599 46.7923 249.599 47.334C249.599 48.1634 249.33 48.8151 248.792 49.2891C248.255 49.763 247.495 50 246.514 50H243.308ZM244.527 45.6772V49.0034H246.539C247.106 49.0034 247.553 48.8574 247.878 48.5654C248.208 48.2692 248.374 47.863 248.374 47.3467C248.374 46.2337 247.768 45.6772 246.558 45.6772H244.527ZM244.527 44.6997H246.368C246.901 44.6997 247.326 44.5664 247.644 44.2998C247.965 44.0332 248.126 43.6714 248.126 43.2144C248.126 42.7065 247.978 42.3384 247.682 42.1099C247.385 41.8771 246.935 41.7607 246.33 41.7607H244.527V44.6997ZM251.598 50V45.7725H250.379V44.814H251.598V40.7578H254.207C255.011 40.7578 255.722 40.9355 256.34 41.291C256.958 41.6465 257.434 42.1522 257.768 42.8081C258.107 43.464 258.278 44.2173 258.282 45.0679V45.6582C258.282 46.5299 258.113 47.2938 257.774 47.9497C257.44 48.6056 256.96 49.1092 256.333 49.4604C255.711 49.8117 254.986 49.9915 254.156 50H251.598ZM254.417 45.7725H252.817V49.0034H254.093C255.032 49.0034 255.762 48.7135 256.283 48.1338C256.807 47.554 257.072 46.7373 257.076 45.6836V45.0933C257.076 44.0438 256.829 43.2292 256.333 42.6494C255.843 42.0654 255.144 41.7692 254.239 41.7607H252.817V44.814H254.417V45.7725ZM262.853 45.8804C261.807 45.5799 261.046 45.2118 260.567 44.7759C260.093 44.3358 259.856 43.7941 259.856 43.1509C259.856 42.423 260.146 41.8221 260.726 41.3481C261.31 40.87 262.068 40.6309 262.999 40.6309C263.633 40.6309 264.198 40.7536 264.693 40.999C265.193 41.2445 265.578 41.583 265.849 42.0146C266.124 42.4463 266.261 42.9181 266.261 43.4302H265.036C265.036 42.8716 264.858 42.4336 264.503 42.1162C264.147 41.7946 263.646 41.6338 262.999 41.6338C262.398 41.6338 261.928 41.7671 261.589 42.0337C261.255 42.2961 261.088 42.6621 261.088 43.1318C261.088 43.5085 261.247 43.828 261.564 44.0903C261.886 44.3485 262.429 44.5854 263.195 44.8013C263.965 45.0171 264.566 45.2562 264.998 45.5186C265.434 45.7767 265.756 46.0793 265.963 46.4263C266.174 46.7733 266.28 47.1816 266.28 47.6514C266.28 48.4004 265.988 49.0013 265.404 49.4541C264.82 49.9027 264.04 50.127 263.062 50.127C262.427 50.127 261.835 50.0063 261.285 49.7651C260.735 49.5197 260.309 49.1854 260.009 48.7622C259.713 48.339 259.564 47.8587 259.564 47.3213H260.79C260.79 47.8799 260.995 48.3221 261.405 48.6479C261.82 48.9696 262.372 49.1304 263.062 49.1304C263.705 49.1304 264.198 48.9992 264.541 48.7368C264.884 48.4744 265.055 48.1169 265.055 47.6641C265.055 47.2113 264.896 46.8621 264.579 46.6167C264.262 46.367 263.686 46.1216 262.853 45.8804Z" fill="black"/>
</svg>